<?xml version="1.0" standalone="no"?>
<!DOCTYPE svg PUBLIC "-//W3C//DTD SVG 20010904//EN"
 "http://www.w3.org/TR/2001/REC-SVG-20010904/DTD/svg10.dtd">
<svg version="1.0" xmlns="http://www.w3.org/2000/svg"
 width="200.000000pt" height="200.000000pt" viewBox="0 0 200.000000 200.000000"
 preserveAspectRatio="xMidYMid meet">
<metadata>
Created by potrace 1.14, written by Peter Selinger 2001-2017
</metadata>
<g transform="translate(0.000000,200.000000) scale(0.100000,-0.100000)"
fill="#000000" stroke="none">
<path d="M885 1974 c-32 -11 -135 -19 -135 -11 0 5 -8 6 -17 2 -10 -4 -22 -8
-28 -9 -5 -1 -28 -10 -50 -20 -22 -10 -48 -19 -57 -21 -22 -5 -111 -56 -120
-70 -4 -5 -8 -6 -8 -2 0 5 -20 -6 -45 -24 -24 -17 -42 -36 -39 -41 3 -5 1 -7
-4 -6 -12 4 -72 -63 -72 -80 0 -7 -7 -15 -15 -18 -8 -4 -13 -9 -10 -13 2 -4
-5 -14 -16 -21 -10 -8 -19 -22 -19 -32 0 -10 -4 -18 -10 -18 -5 0 -10 -6 -10
-14 0 -7 -10 -35 -22 -62 -13 -27 -23 -58 -24 -69 -1 -21 -10 -49 -25 -77 -5
-10 -9 -24 -9 -32 0 -15 -27 -107 -42 -146 -6 -14 -12 -38 -15 -55 -7 -52 -33
-109 -65 -142 -29 -30 -30 -34 -24 -95 44 -414 321 -742 731 -865 83 -25 104
-27 265 -27 162 0 182 2 265 28 177 53 329 142 443 259 94 95 108 116 94 138
-14 22 -16 59 -3 59 5 0 21 -4 35 -10 23 -8 26 -7 26 10 0 11 -4 20 -9 20 -17
0 -7 43 11 48 10 2 18 9 18 14 0 5 4 7 9 4 14 -9 26 13 55 93 40 112 57 229
52 361 -2 63 -7 126 -10 140 -3 14 -8 39 -12 55 -11 58 -46 155 -55 155 -6 0
-8 4 -5 9 6 9 -50 124 -84 171 -12 17 -26 27 -32 24 -6 -4 -8 -2 -5 4 9 14 -3
43 -14 36 -5 -3 -9 0 -9 6 0 5 -12 23 -28 39 -31 33 -56 28 -72 -15 -6 -15
-17 -24 -31 -24 -22 0 -85 60 -94 91 -4 10 -15 21 -26 24 -10 4 -19 11 -19 17
0 6 -6 6 -15 -2 -13 -11 -15 -10 -10 1 3 8 -7 21 -26 31 -16 10 -27 22 -24 28
3 5 1 10 -6 10 -6 0 0 11 15 25 30 28 32 35 11 35 -8 0 -15 5 -15 10 0 6 -9
10 -19 10 -11 0 -23 5 -27 11 -3 6 -15 9 -25 6 -11 -3 -17 -1 -13 4 9 15 -13
10 -26 -6 -13 -15 -70 -21 -70 -7 0 4 -15 13 -32 21 -18 8 -36 19 -40 25 -9
14 -170 17 -161 3 4 -6 1 -7 -7 -2 -14 9 -106 15 -125 9z m282 -49 c0 -8 -4
-15 -9 -15 -10 0 -11 14 -1 23 9 10 10 9 10 -8z"/>
</g>
</svg>
