<?xml version="1.0" encoding="UTF-8" standalone="no"?>
<!-- Created with Inkscape (http://www.inkscape.org/) -->

<svg
   width="175.49884mm"
   height="86.782639mm"
   viewBox="0 0 175.49884 86.782639"
   version="1.1"
   id="svg5"
   sodipodi:docname="logo.svg"
   inkscape:version="1.1.1 (3bf5ae0d25, 2021-09-20, custom)"
   xmlns:inkscape="http://www.inkscape.org/namespaces/inkscape"
   xmlns:sodipodi="http://sodipodi.sourceforge.net/DTD/sodipodi-0.dtd"
   xmlns:xlink="http://www.w3.org/1999/xlink"
   xmlns="http://www.w3.org/2000/svg"
   xmlns:svg="http://www.w3.org/2000/svg">
  <sodipodi:namedview
     id="namedview7"
     pagecolor="#ffffff"
     bordercolor="#666666"
     borderopacity="1.0"
     inkscape:pageshadow="2"
     inkscape:pageopacity="0.0"
     inkscape:pagecheckerboard="0"
     inkscape:document-units="mm"
     showgrid="false"
     inkscape:lockguides="true"
     showguides="true"
     inkscape:guide-bbox="true"
     inkscape:zoom="0.70710678"
     inkscape:cx="304.05592"
     inkscape:cy="-5.6568543"
     inkscape:window-width="1920"
     inkscape:window-height="1080"
     inkscape:window-x="1920"
     inkscape:window-y="0"
     inkscape:window-maximized="1"
     inkscape:current-layer="layer1"
     fit-margin-top="0"
     fit-margin-left="0"
     fit-margin-right="0"
     fit-margin-bottom="0" />
  <defs
     id="defs2">
    <inkscape:path-effect
       effect="powerclip"
       id="path-effect6561"
       is_visible="true"
       lpeversion="1"
       inverse="true"
       flatten="false"
       hide_clip="false"
       message="Use fill-rule evenodd on &lt;b&gt;fill and stroke&lt;/b&gt; dialog if no flatten result after convert clip to paths." />
    <linearGradient
       inkscape:collect="always"
       id="linearGradient90169">
      <stop
         style="stop-color:#000000;stop-opacity:1;"
         offset="0"
         id="stop90165" />
      <stop
         style="stop-color:#000000;stop-opacity:0;"
         offset="1"
         id="stop90167" />
    </linearGradient>
    <linearGradient
       id="linearGradient90125"
       inkscape:swatch="solid">
      <stop
         style="stop-color:#000000;stop-opacity:1;"
         offset="0"
         id="stop90123" />
    </linearGradient>
    <inkscape:path-effect
       effect="powerclip"
       id="path-effect87840"
       is_visible="true"
       lpeversion="1"
       inverse="true"
       flatten="false"
       hide_clip="false"
       message="Use fill-rule evenodd on &lt;b&gt;fill and stroke&lt;/b&gt; dialog if no flatten result after convert clip to paths." />
    <clipPath
       clipPathUnits="userSpaceOnUse"
       id="clipPath87836">
      <rect
         style="display:none;fill:#ffffff;stroke:none;stroke-width:1.00157;stroke-linecap:butt;stroke-linejoin:round;stroke-miterlimit:4;stroke-dasharray:none;stroke-dashoffset:0;stroke-opacity:1;paint-order:normal"
         id="rect87838"
         width="52.765926"
         height="49.127396"
         x="317.59689"
         y="424.21234"
         d="m 317.59689,424.21234 h 52.76593 v 49.1274 h -52.76593 z" />
      <path
         style="display:none;fill:#ffffff;stroke:none;stroke-width:1.00157;stroke-linecap:butt;stroke-linejoin:round;stroke-miterlimit:4;stroke-dasharray:none;stroke-dashoffset:0;stroke-opacity:1;paint-order:normal"
         class="powerclip"
         id="lpe_path-effect87840"
         d="m 330.92578,402.98582 h 114.91528 v 147.4375 H 330.92578 Z m -13.32889,21.22652 v 49.1274 h 52.76593 v -49.1274 z" />
    </clipPath>
    <linearGradient
       inkscape:collect="always"
       xlink:href="#linearGradient90125"
       id="linearGradient90127"
       x1="20.413614"
       y1="183.22646"
       x2="195.91245"
       y2="183.22646"
       gradientUnits="userSpaceOnUse" />
    <linearGradient
       inkscape:collect="always"
       xlink:href="#linearGradient90169"
       id="linearGradient90171"
       x1="20.281322"
       y1="183.22646"
       x2="196.04474"
       y2="183.22646"
       gradientUnits="userSpaceOnUse" />
    <clipPath
       clipPathUnits="userSpaceOnUse"
       id="clipPath6557">
      <path
         id="path6559"
         style="display:none;fill:#ffffff;stroke-width:0.264583"
         d="m 89.119088,125.67126 h 7.779047 v 12.99521 h -7.779047 z" />
      <path
         id="lpe_path-effect6561"
         style="display:inline;fill:#ffffff;stroke-width:0.264583"
         class="powerclip"
         d="m 85.281132,116.38167 h 37.756448 v 46.36368 H 85.281132 Z m 3.837956,9.28959 v 12.99521 h 7.779047 v -12.99521 z" />
    </clipPath>
  </defs>
  <g
     inkscape:label="Layer 1"
     inkscape:groupmode="layer"
     id="layer1"
     style="display:inline"
     transform="translate(-20.413614,-108.61097)">
    <g
       aria-label="Project Artemis
Fuck you kindly"
       id="text2211"
       style="font-size:10.5833px;line-height:0.8;font-family:Cinzel;-inkscape-font-specification:'Cinzel, Normal';stroke-width:0.264583">
      <path
         d="m 29.63948,175.14872 q 0,0.86925 -0.355601,1.61996 -0.651935,1.40265 -2.29165,1.9558 -0.572912,0.19756 -0.98778,0.19756 -1.224847,0 -2.113849,-0.45438 v -0.19755 q 1.442159,0.31609 2.667006,-0.31609 1.086558,-0.55316 1.48167,-1.81752 0.118534,-0.39511 0.118534,-0.75071 0,-0.3556 0,-0.43463 -0.03951,-1.38289 -0.730958,-2.19287 -0.691446,-0.82973 -1.936048,-0.82973 H 23.21891 v 11.79409 q 0.01975,0.51365 0.375356,0.889 0.375356,0.3556 0.889002,0.3556 h 0.256823 v 0.19756 h -4.326477 v -0.19756 h 0.256823 q 0.513646,0 0.869247,-0.3556 0.375356,-0.37535 0.395112,-0.889 v -11.04338 q -0.05927,-0.49389 -0.414868,-0.80998 -0.355601,-0.33584 -0.849491,-0.33584 H 20.43337 l -0.01976,-0.19756 h 5.156212 q 1.896538,0 2.983096,1.02729 1.086558,1.00754 1.086558,2.78554 z"
         style="font-size:19.7556px;text-align:center;letter-spacing:0.79375px;text-anchor:middle"
         id="path28" />
      <path
         d="m 36.004297,173.92387 h -1.047046 v 9.97658 q 0.01976,0.61243 0.553156,0.92851 0.256823,0.13829 0.572913,0.13829 h 0.256823 l 0.01976,0.19756 H 32.31 v -0.19756 h 0.276579 q 0.454378,0 0.770468,-0.29633 0.335845,-0.31609 0.335845,-0.75071 v -9.38391 q 0,-0.43463 -0.335845,-0.73096 -0.31609,-0.29633 -0.770468,-0.29633 H 32.31 v -0.19756 h 4.958656 q 1.857026,0 2.923829,0.84949 1.086558,0.84949 1.086558,2.23238 0,1.3829 -0.869247,2.31141 -0.869246,0.92851 -2.212627,1.0668 0.632179,0.27658 1.521181,1.54094 -0.01976,0 0.671691,0.86924 0.711201,0.86925 1.126069,1.36314 0.434623,0.47414 0.711201,0.73096 0.730958,0.69144 1.679226,0.69144 v 0.19756 h -0.612423 q -1.560693,0 -2.449695,-0.61242 -0.67169,-0.45438 -1.224847,-1.12607 -0.118533,-0.15805 -1.007535,-1.38289 -0.869247,-1.24461 -0.928514,-1.32363 -1.066802,-1.32363 -1.995315,-1.32363 v -0.19755 q 2.311405,0 2.785539,-0.23707 0.651935,-0.33584 0.889002,-0.7112 0.49389,-0.79022 0.49389,-1.73849 0,-1.20509 -0.711201,-1.85703 -0.711202,-0.65193 -1.916293,-0.7112 -0.533402,-0.0198 -1.224848,-0.0198 z"
         style="font-size:19.7556px;text-align:center;letter-spacing:0.79375px;text-anchor:middle"
         id="path30" />
      <path
         d="m 48.019248,173.8251 q 1.521181,-0.79023 3.338697,-0.79023 1.83727,0 3.358452,0.79023 1.521181,0.77046 2.410183,2.19287 0.908757,1.4224 0.908757,3.22016 0,1.79776 -0.908757,3.22016 -0.889002,1.42241 -2.410183,2.21263 -1.521182,0.77047 -3.121385,0.77047 -1.600204,0 -2.825051,-0.45438 -1.224847,-0.45438 -2.133605,-1.26436 -0.889002,-0.80998 -1.422403,-1.97556 -0.513646,-1.16558 -0.513646,-2.72627 0,-1.58045 0.889002,-3.00285 0.908758,-1.42241 2.429939,-2.19287 z m -0.375356,9.46293 q 1.501425,1.56069 3.714053,1.56069 2.212627,0 3.714052,-1.56069 1.501426,-1.58045 1.501426,-4.0499 0,-2.46945 -1.501426,-4.03014 -1.501425,-1.58045 -3.714052,-1.58045 -2.212628,0 -3.714053,1.58045 -1.48167,1.56069 -1.48167,4.03014 0,2.46945 1.48167,4.0499 z"
         style="font-size:19.7556px;text-align:center;letter-spacing:0.79375px;text-anchor:middle"
         id="path32" />
      <path
         d="m 64.953326,173.50901 q -0.730957,0 -1.106313,0.5334 -0.158045,0.23706 -0.177801,0.5334 v 10.589 q 0,1.44216 -1.086558,2.46945 -1.066802,1.04705 -2.528717,1.04705 v -0.19756 q 0.968025,-0.29633 1.659471,-1.26436 0.691446,-0.96802 0.691446,-2.05458 v -10.66802 q -0.03951,-0.41487 -0.414868,-0.69145 -0.355601,-0.29633 -0.869246,-0.29633 h -0.237067 l -0.01976,-0.19756 h 4.346232 v 0.19756 z"
         style="font-size:19.7556px;text-align:center;letter-spacing:0.79375px;text-anchor:middle"
         id="path34" />
      <path
         d="m 68.058482,184.96725 q 0.474135,0 0.790224,-0.29633 0.335846,-0.31609 0.355601,-0.75071 v -9.38391 q 0,-0.43463 -0.335845,-0.73096 -0.335845,-0.29633 -0.80998,-0.29633 h -0.276578 v -0.19756 h 5.768635 q 0.80998,0 1.422403,-0.11853 0.612424,-0.11854 0.790224,-0.19756 v 2.25214 l -0.217311,-0.0198 v -0.29633 q 0,-0.41487 -0.276579,-0.7112 -0.276578,-0.29634 -0.711201,-0.29634 H 70.44891 v 5.01793 h 3.378208 q 0.395112,0 0.592668,-0.23707 0.217311,-0.23707 0.217311,-0.59267 v -0.25682 h 0.217312 v 2.76578 h -0.217312 v -0.25682 q 0,-0.55316 -0.414867,-0.75071 -0.158045,-0.0593 -0.335846,-0.079 H 70.44891 v 5.01793 h 3.101629 q 0.908758,0 1.521181,-0.31609 0.63218,-0.31609 0.948269,-0.75072 0.335845,-0.43462 0.671691,-1.14582 h 0.197556 l -1.086558,2.82505 h -8.020774 v -0.19756 z"
         style="font-size:19.7556px;text-align:center;letter-spacing:0.79375px;text-anchor:middle"
         id="path36" />
      <path
         d="m 85.78277,185.44139 q -3.022607,-0.0198 -4.780856,-1.67923 -1.738492,-1.65947 -1.738492,-4.52403 0,-2.88432 1.738492,-4.54379 1.758249,-1.65947 4.780856,-1.65947 1.224847,0 2.46945,0.31609 1.244602,0.31609 2.15336,0.86925 l 0.434623,2.80529 h -0.1778 q -0.849491,-3.39796 -4.899389,-3.39796 -2.350916,0 -3.714053,1.50143 -1.363136,1.50142 -1.363136,4.10916 0,1.69898 0.612423,2.96334 0.612424,1.2446 1.778004,1.93605 1.165581,0.69144 2.706518,0.69144 1.540936,0 2.686761,-0.45437 1.165581,-0.47414 1.916293,-1.54094 0.770469,-1.0668 0.869247,-2.64725 h 0.1778 l -0.217311,2.70652 q -0.770469,1.18533 -2.232383,1.87678 -1.461915,0.67169 -3.200407,0.67169 z"
         style="font-size:19.7556px;text-align:center;letter-spacing:0.79375px;text-anchor:middle"
         id="path38" />
      <path
         d="m 99.358396,173.88436 v 10.03585 q 0.01976,0.61242 0.592668,0.90875 0.256826,0.13829 0.572916,0.13829 h 0.21731 v 0.19756 h -4.069656 v -0.19756 h 0.237067 q 0.474135,0 0.80998,-0.31609 0.335845,-0.31609 0.355601,-0.75071 v -10.01609 h -3.575764 q -0.454379,0 -0.730957,0.29634 -0.256823,0.29633 -0.256823,0.7112 v 0.31609 h -0.217312 v -2.23239 q 0.395112,0.15805 1.106314,0.23707 0.730957,0.079 1.086558,0.079 h 6.440322 q 1.42241,0 2.21263,-0.31609 v 2.23239 h -0.21731 v -0.31609 q 0,-0.41487 -0.27658,-0.7112 -0.27658,-0.29634 -0.7112,-0.29634 z"
         style="font-size:19.7556px;text-align:center;letter-spacing:0.79375px;text-anchor:middle"
         id="path40" />
      <path
         d="m 125.08722,184.96725 h 0.15804 v 0.19756 h -4.44501 v -0.19756 h 0.1778 q 0.41487,0 0.61242,-0.25682 0.21732,-0.27658 0.21732,-0.51364 0,-0.23707 -0.079,-0.47414 l -1.26435,-3.35845 h -5.33402 l -1.32362,3.37821 q -0.079,0.23706 -0.079,0.47413 0,0.21731 0.19755,0.49389 0.21731,0.25682 0.63218,0.25682 h 0.1778 v 0.19756 h -3.97087 v -0.19756 h 0.1778 q 0.49389,0 0.96802,-0.31609 0.47414,-0.31609 0.77047,-0.92851 l 4.46476,-10.62851 q 0.73096,-1.60021 0.73096,-2.03483 h 0.1778 l 5.2945,12.66334 q 0.27658,0.61242 0.75072,0.92851 0.47413,0.31609 0.98778,0.31609 z m -9.71976,-5.19572 h 4.85988 l -2.37067,-6.34155 z"
         style="font-size:19.7556px;text-align:center;letter-spacing:0.79375px;text-anchor:middle"
         id="path42" />
      <path
         d="m 130.5828,173.92387 h -1.04705 v 9.97658 q 0.0197,0.61243 0.55316,0.92851 0.25682,0.13829 0.57291,0.13829 h 0.25682 l 0.0198,0.19756 h -4.0499 v -0.19756 h 0.27658 q 0.45438,0 0.77046,-0.29633 0.33585,-0.31609 0.33585,-0.75071 v -9.38391 q 0,-0.43463 -0.33585,-0.73096 -0.31608,-0.29633 -0.77046,-0.29633 h -0.27658 v -0.19756 h 4.95865 q 1.85703,0 2.92383,0.84949 1.08656,0.84949 1.08656,2.23238 0,1.3829 -0.86925,2.31141 -0.86924,0.92851 -2.21262,1.0668 0.63218,0.27658 1.52118,1.54094 -0.0198,0 0.67169,0.86924 0.7112,0.86925 1.12607,1.36314 0.43462,0.47414 0.7112,0.73096 0.73096,0.69144 1.67923,0.69144 v 0.19756 h -0.61243 q -1.56069,0 -2.44969,-0.61242 -0.67169,-0.45438 -1.22485,-1.12607 -0.11853,-0.15805 -1.00754,-1.38289 -0.86924,-1.24461 -0.92851,-1.32363 -1.0668,-1.32363 -1.99531,-1.32363 v -0.19755 q 2.3114,0 2.78554,-0.23707 0.65193,-0.33584 0.889,-0.7112 0.49389,-0.79022 0.49389,-1.73849 0,-1.20509 -0.7112,-1.85703 -0.71121,-0.65193 -1.9163,-0.7112 -0.5334,-0.0198 -1.22484,-0.0198 z"
         style="font-size:19.7556px;text-align:center;letter-spacing:0.79375px;text-anchor:middle"
         id="path44" />
      <path
         d="m 144.84989,173.88436 v 10.03585 q 0.0198,0.61242 0.59267,0.90875 0.25682,0.13829 0.57291,0.13829 h 0.21731 v 0.19756 h -4.06965 v -0.19756 h 0.23706 q 0.47414,0 0.80998,-0.31609 0.33585,-0.31609 0.3556,-0.75071 v -10.01609 h -3.57576 q -0.45438,0 -0.73096,0.29634 -0.25682,0.29633 -0.25682,0.7112 v 0.31609 h -0.21731 v -2.23239 q 0.39511,0.15805 1.10631,0.23707 0.73096,0.079 1.08656,0.079 h 6.44033 q 1.4224,0 2.21262,-0.31609 v 2.23239 h -0.21731 v -0.31609 q 0,-0.41487 -0.27658,-0.7112 -0.27657,-0.29634 -0.7112,-0.29634 z"
         style="font-size:19.7556px;text-align:center;letter-spacing:0.79375px;text-anchor:middle"
         id="path46" />
      <path
         d="m 152.06419,184.96725 q 0.47414,0 0.79023,-0.29633 0.33584,-0.31609 0.3556,-0.75071 v -9.38391 q 0,-0.43463 -0.33585,-0.73096 -0.33584,-0.29633 -0.80998,-0.29633 h -0.27658 v -0.19756 h 5.76864 q 0.80998,0 1.4224,-0.11853 0.61243,-0.11854 0.79023,-0.19756 v 2.25214 l -0.21731,-0.0198 v -0.29633 q 0,-0.41487 -0.27658,-0.7112 -0.27658,-0.29634 -0.7112,-0.29634 h -4.10917 v 5.01793 h 3.37821 q 0.39511,0 0.59267,-0.23707 0.21731,-0.23707 0.21731,-0.59267 v -0.25682 h 0.21731 v 2.76578 h -0.21731 v -0.25682 q 0,-0.55316 -0.41487,-0.75071 -0.15804,-0.0593 -0.33584,-0.079 h -3.43748 v 5.01793 h 3.10163 q 0.90876,0 1.52118,-0.31609 0.63218,-0.31609 0.94827,-0.75072 0.33585,-0.43462 0.67169,-1.14582 h 0.19756 l -1.08656,2.82505 h -8.02078 v -0.19756 z"
         style="font-size:19.7556px;text-align:center;letter-spacing:0.79375px;text-anchor:middle"
         id="path48" />
      <path
         d="m 179.19216,184.96725 h 0.29633 v 0.19756 h -4.10916 v -0.1778 h 0.29633 q 0.29633,0 0.51365,-0.21731 0.23706,-0.23707 0.19755,-0.55316 l -1.02729,-8.13931 -3.73381,7.34909 q -0.55315,1.20509 -0.69144,2.01507 h -0.19756 l -4.7611,-9.18636 -0.889,7.96151 q -0.0395,0.29634 0.1778,0.5334 0.23707,0.23707 0.55316,0.23707 h 0.27657 v 0.1778 h -3.65478 v -0.19756 h 0.29633 q 0.7112,0 1.10632,-0.51364 0.19755,-0.25682 0.23706,-0.61243 l 1.54094,-10.80631 h 0.19756 l 5.21547,10.03585 5.03768,-10.03585 h 0.1778 l 1.60021,10.84583 q 0.079,0.49389 0.45438,0.79022 0.37535,0.29633 0.889,0.29633 z"
         style="font-size:19.7556px;text-align:center;letter-spacing:0.79375px;text-anchor:middle"
         id="path50" />
      <path
         d="m 181.78366,184.96725 q 0.5334,0 0.92851,-0.31609 0.39512,-0.31609 0.39512,-0.75071 v -9.32464 q 0,-0.43462 -0.39512,-0.75071 -0.39511,-0.31609 -0.94827,-0.31609 h -0.25682 v -0.19756 h 4.46477 v 0.19756 h -0.25683 q -0.5334,0 -0.92851,0.29633 -0.37535,0.29633 -0.41487,0.73096 v 9.38391 q 0.0198,0.43462 0.41487,0.75071 0.39511,0.29633 0.92851,0.29633 h 0.25683 l 0.0198,0.19756 h -4.48452 v -0.19756 z"
         style="font-size:19.7556px;text-align:center;letter-spacing:0.79375px;text-anchor:middle"
         id="path52" />
      <path
         d="m 188.99799,184.51288 q -0.0593,-0.23707 -0.0593,-0.96803 0,-0.73096 0.25683,-1.48167 h 0.23706 q -0.0198,0.1778 -0.0198,0.3556 0,1.0668 0.69144,1.75825 0.7112,0.67169 1.95581,0.67169 1.30387,0 2.03482,-0.59267 0.73096,-0.61242 0.73096,-1.56069 0,-0.96802 -0.7112,-1.6002 l -3.95112,-3.04237 q -0.94827,-0.80998 -0.94827,-2.17311 0,-0.77047 0.41487,-1.42241 0.43462,-0.65193 1.18533,-1.02729 0.77047,-0.39511 1.79776,-0.39511 1.0273,0 1.81752,0.1778 h 0.65193 l 0.0395,2.15336 h -0.21732 q 0,-0.82973 -0.57291,-1.28411 -0.57291,-0.45438 -1.63971,-0.45438 -1.06681,0 -1.75825,0.55316 -0.69145,0.5334 -0.69145,1.40264 0,0.84949 0.77047,1.48167 l 3.99063,3.08188 q 0.90876,0.75071 0.90876,2.09409 0,1.34338 -1.02729,2.2719 -1.00754,0.92851 -2.46945,0.92851 -0.96803,0 -1.93605,-0.23707 -0.96803,-0.23707 -1.48167,-0.69144 z"
         style="font-size:19.7556px;text-align:center;letter-spacing:0.79375px;text-anchor:middle"
         id="path54" />
      <path
         d="m 49.064792,187.95355 v 0.889 h -0.105833 v -0.15875 q 0,-0.21166 -0.148166,-0.35983 -0.148166,-0.15875 -0.370416,-0.15875 h -2.233076 v 3.27024 h 1.788578 q 0.211666,-0.0106 0.359832,-0.15875 0.148166,-0.14817 0.148166,-0.35983 v -0.15875 h 0.105833 v 1.67216 h -0.105833 v -0.15875 q 0,-0.21166 -0.148166,-0.35983 -0.137583,-0.14817 -0.349249,-0.15875 h -1.799161 v 2.71991 q 0,0.27516 0.201083,0.47625 0.201082,0.1905 0.476248,0.1905 h 0.137583 v 0.10583 h -2.317743 v -0.10583 h 0.137583 q 0.275166,0 0.465666,-0.1905 0.201082,-0.20109 0.211666,-0.47625 v -5.92665 q 0,-0.254 -0.211666,-0.42333 -0.201083,-0.17992 -0.465666,-0.17992 h -0.126999 l -0.01058,-0.10583 h 3.100907 q 0.328083,0 0.709081,-0.0635 0.391582,-0.0635 0.550332,-0.127 z"
         style="text-align:center;letter-spacing:2.64583px;text-anchor:middle"
         id="path56" />
      <path
         d="m 59.372932,189.0013 h -0.15875 q -0.285749,0 -0.433915,0.22225 -0.0635,0.0953 -0.07408,0.22225 v 3.56657 q 0,1.10067 -0.709081,1.74625 -0.698498,0.63499 -1.926161,0.63499 -1.227662,0 -1.936744,-0.63499 -0.709081,-0.635 -0.709081,-1.73566 v -3.56658 q 0,-0.1905 -0.148166,-0.3175 -0.148166,-0.13758 -0.359832,-0.13758 h -0.15875 v -0.10583 h 2.010827 v 0.10583 h -0.158749 q -0.211666,0 -0.359832,0.13758 -0.148166,0.127 -0.148166,0.3175 v 3.43958 q 0,1.02658 0.518581,1.61924 0.529165,0.59267 1.481662,0.59267 0.96308,0 1.534579,-0.56092 0.582081,-0.56091 0.582081,-1.53458 v -3.55599 q -0.01058,-0.20108 -0.158749,-0.32808 -0.137583,-0.127 -0.349249,-0.127 h -0.15875 v -0.10583 h 1.820328 z"
         style="text-align:center;letter-spacing:2.64583px;text-anchor:middle"
         id="path58" />
      <path
         d="m 66.273252,195.39361 q -1.619245,-0.0106 -2.561159,-0.89958 -0.93133,-0.88899 -0.93133,-2.42357 0,-1.54516 0.93133,-2.43416 0.941914,-0.889 2.561159,-0.889 0.656164,0 1.322912,0.16934 0.666748,0.16933 1.15358,0.46566 l 0.232832,1.50283 h -0.09525 q -0.455082,-1.82033 -2.624659,-1.82033 -1.259412,0 -1.98966,0.80433 -0.730248,0.80433 -0.730248,2.20133 0,0.91016 0.328083,1.58749 0.328082,0.66675 0.952496,1.03717 0.624415,0.37041 1.449913,0.37041 0.825497,0 1.439328,-0.24341 0.624415,-0.254 1.02658,-0.8255 0.412749,-0.5715 0.465666,-1.41816 h 0.09525 l -0.116416,1.44991 q -0.412749,0.635 -1.195913,1.00541 -0.783164,0.35983 -1.714494,0.35983 z"
         style="text-align:center;letter-spacing:2.64583px;text-anchor:middle"
         id="path60" />
      <path
         d="m 79.015549,195.24545 h -0.391582 q -1.037164,0 -1.555745,-0.60325 l -2.328326,-2.55057 2.275409,-2.67758 q 0.116416,-0.14817 0.03175,-0.27517 -0.07408,-0.13758 -0.264582,-0.13758 h -0.09525 v -0.10583 h 2.158993 v 0.10583 h -0.04233 q -0.645581,0 -1.02658,0.381 l -2.30716,2.46591 2.624659,2.85749 q 0.190499,0.23283 0.391582,0.32808 0.201083,0.0952 0.529165,0.10584 z m -4.021654,-0.10583 h 0.116416 v 0.10583 h -2.169576 v -0.10583 h 0.126999 q 0.254,0 0.433916,-0.16934 0.179916,-0.16933 0.190499,-0.40216 v -4.99532 q -0.01058,-0.23283 -0.190499,-0.40217 -0.179916,-0.16933 -0.433916,-0.16933 h -0.126999 v -0.10583 h 2.169576 v 0.10583 h -0.126999 q -0.338666,0 -0.529165,0.27517 -0.08467,0.127 -0.08467,0.28575 v 5.01648 q 0,0.23283 0.179916,0.40217 0.1905,0.15875 0.444499,0.15875 z"
         style="text-align:center;letter-spacing:2.64583px;text-anchor:middle"
         id="path62" />
      <path
         d="M 93.726349,189.0013 H 93.59935 q -0.285749,0 -0.550332,0.15875 -0.253999,0.14817 -0.423332,0.381 l -2.031993,3.07974 v 1.94733 q 0,0.23283 0.179916,0.40216 0.179916,0.16934 0.433915,0.16934 h 0.127 v 0.10583 h -2.169577 v -0.10583 h 0.127 q 0.253999,0 0.433915,-0.16934 0.179916,-0.16933 0.179916,-0.40216 v -1.95791 l -1.95791,-3.07974 q -0.359833,-0.52917 -0.973664,-0.52917 h -0.126999 v -0.10583 h 2.455325 v 0.10583 h -0.127 q -0.201082,0 -0.296332,0.127 -0.08467,0.127 -0.08467,0.22225 0,0.0847 0.02117,0.15875 l 1.545162,2.74107 1.640411,-2.73049 q 0.03175,-0.0847 0.03175,-0.16933 0,-0.0952 -0.09525,-0.22225 -0.08467,-0.127 -0.296333,-0.127 H 91.51444 v -0.10583 h 2.211909 z"
         style="text-align:center;letter-spacing:2.64583px;text-anchor:middle"
         id="path64" />
      <path
         d="m 98.256002,189.17063 q 0.814914,-0.42333 1.788578,-0.42333 0.98425,0 1.79916,0.42333 0.81491,0.41275 1.29116,1.17475 0.48683,0.762 0.48683,1.72508 0,0.96308 -0.48683,1.72508 -0.47625,0.76199 -1.29116,1.18533 -0.81491,0.41274 -1.67216,0.41274 -0.857248,0 -1.513413,-0.24341 -0.656165,-0.24342 -1.142996,-0.67733 -0.476249,-0.43392 -0.761998,-1.05833 -0.275166,-0.62442 -0.275166,-1.4605 0,-0.84666 0.476249,-1.60866 0.486832,-0.762 1.301746,-1.17475 z m -0.201083,5.0694 q 0.804331,0.83609 1.989661,0.83609 1.18533,0 1.98966,-0.83609 0.80433,-0.84666 0.80433,-2.16957 0,-1.32291 -0.80433,-2.15899 -0.80433,-0.84667 -1.98966,-0.84667 -1.18533,0 -1.989661,0.84667 -0.793748,0.83608 -0.793748,2.15899 0,1.32291 0.793748,2.16957 z"
         style="text-align:center;letter-spacing:2.64583px;text-anchor:middle"
         id="path66" />
      <path
         d="m 113.71821,189.0013 h -0.15875 q -0.28575,0 -0.43392,0.22225 -0.0635,0.0953 -0.0741,0.22225 v 3.56657 q 0,1.10067 -0.70908,1.74625 -0.6985,0.63499 -1.92616,0.63499 -1.22766,0 -1.93674,-0.63499 -0.70909,-0.635 -0.70909,-1.73566 v -3.56658 q 0,-0.1905 -0.14816,-0.3175 -0.14817,-0.13758 -0.35983,-0.13758 h -0.15875 v -0.10583 h 2.01082 v 0.10583 h -0.15875 q -0.21166,0 -0.35983,0.13758 -0.14816,0.127 -0.14816,0.3175 v 3.43958 q 0,1.02658 0.51858,1.61924 0.52916,0.59267 1.48166,0.59267 0.96308,0 1.53458,-0.56092 0.58208,-0.56091 0.58208,-1.53458 v -3.55599 q -0.0106,-0.20108 -0.15875,-0.32808 -0.13758,-0.127 -0.34925,-0.127 h -0.15875 v -0.10583 h 1.82033 z"
         style="text-align:center;letter-spacing:2.64583px;text-anchor:middle"
         id="path68" />
      <path
         d="m 128.68301,195.24545 h -0.39158 q -1.03716,0 -1.55575,-0.60325 l -2.32832,-2.55057 2.27541,-2.67758 q 0.11641,-0.14817 0.0317,-0.27517 -0.0741,-0.13758 -0.26458,-0.13758 h -0.0952 v -0.10583 h 2.15899 v 0.10583 h -0.0423 q -0.64559,0 -1.02658,0.381 l -2.30716,2.46591 2.62466,2.85749 q 0.19049,0.23283 0.39158,0.32808 0.20108,0.0952 0.52916,0.10584 z m -4.02165,-0.10583 h 0.11641 v 0.10583 h -2.16957 v -0.10583 h 0.127 q 0.254,0 0.43391,-0.16934 0.17992,-0.16933 0.1905,-0.40216 v -4.99532 q -0.0106,-0.23283 -0.1905,-0.40217 -0.17991,-0.16933 -0.43391,-0.16933 h -0.127 v -0.10583 h 2.16957 v 0.10583 h -0.127 q -0.33866,0 -0.52916,0.27517 -0.0847,0.127 -0.0847,0.28575 v 5.01648 q 0,0.23283 0.17992,0.40217 0.1905,0.15875 0.4445,0.15875 z"
         style="text-align:center;letter-spacing:2.64583px;text-anchor:middle"
         id="path70" />
      <path
         d="m 132.00618,195.13962 q 0.28575,0 0.49742,-0.16934 0.21166,-0.16933 0.21166,-0.40216 v -4.99532 q 0,-0.23283 -0.21166,-0.40217 -0.21167,-0.16933 -0.508,-0.16933 h -0.13758 v -0.10583 h 2.39182 v 0.10583 h -0.13758 q -0.28575,0 -0.49742,0.15875 -0.20108,0.15875 -0.22225,0.39158 v 5.02707 q 0.0106,0.23283 0.22225,0.40217 0.21167,0.15875 0.49742,0.15875 h 0.13758 l 0.0106,0.10583 h -2.4024 v -0.10583 z"
         style="text-align:center;letter-spacing:2.64583px;text-anchor:middle"
         id="path72" />
      <path
         d="m 145.17181,189.0013 q -0.23283,0 -0.40216,0.15875 -0.16934,0.14817 -0.17992,0.37042 v 4.50848 q 0,0.61383 0.0741,1.16417 l 0.0212,0.19049 h -0.0952 l -5.50331,-5.21756 v 4.41323 q 0,0.23284 0.16933,0.39159 0.16933,0.15875 0.41275,0.15875 h 0.17991 v 0.10583 h -2.00024 v -0.10583 h 0.17992 q 0.24341,0 0.41274,-0.15875 0.16934,-0.15875 0.16934,-0.39159 v -4.52965 q 0,-0.64558 -0.0741,-1.15358 l -0.0212,-0.16933 0.11641,0.0106 5.49274,5.17524 v -4.39207 q -0.0212,-0.22225 -0.1905,-0.37042 -0.16934,-0.15875 -0.40217,-0.15875 h -0.17991 v -0.10583 h 2.00024 v 0.10583 z"
         style="text-align:center;letter-spacing:2.64583px;text-anchor:middle"
         id="path74" />
      <path
         d="m 155.88211,192.07046 q 0,1.47108 -0.92075,2.32832 -0.91016,0.84667 -2.47649,0.84667 h -3.53482 v -0.10583 h 0.13758 q 0.254,0 0.42333,-0.16934 0.16934,-0.16933 0.17992,-0.40216 v -4.99532 q -0.0106,-0.254 -0.1905,-0.41275 -0.16933,-0.15875 -0.42333,-0.15875 h -0.127 v -0.10583 h 3.53482 q 1.03716,0 1.79916,0.381 0.77258,0.381 1.18533,1.10066 0.41275,0.71966 0.41275,1.69333 z m -5.50332,-2.85749 v 5.71498 h 2.10608 q 1.21708,0 1.92616,-0.762 0.70908,-0.77258 0.70908,-2.09549 0,-1.32291 -0.70908,-2.08491 -0.70908,-0.77258 -1.92616,-0.77258 z"
         style="text-align:center;letter-spacing:2.64583px;text-anchor:middle"
         id="path76" />
      <path
         d="m 159.62861,195.13962 q 0.254,0 0.42333,-0.15875 0.17992,-0.16934 0.1905,-0.40217 v -5.0059 q -0.0106,-0.23283 -0.20108,-0.40217 -0.17992,-0.16933 -0.43392,-0.16933 h -0.127 v -0.10583 h 2.19075 v 0.10583 h -0.127 q -0.254,0 -0.4445,0.16933 -0.17992,0.16934 -0.17992,0.40217 v 5.34457 h 1.651 q 0.48683,0 0.82549,-0.16934 0.33867,-0.16933 0.508,-0.40216 0.17992,-0.23283 0.34925,-0.61383 h 0.10584 l -0.58209,1.51341 h -4.29682 v -0.10583 z"
         style="text-align:center;letter-spacing:2.64583px;text-anchor:middle"
         id="path78" />
      <path
         d="m 172.98473,189.0013 h -0.127 q -0.28575,0 -0.55033,0.15875 -0.254,0.14817 -0.42333,0.381 l -2.032,3.07974 v 1.94733 q 0,0.23283 0.17992,0.40216 0.17992,0.16934 0.43391,0.16934 h 0.127 v 0.10583 h -2.16957 v -0.10583 h 0.127 q 0.254,0 0.43391,-0.16934 0.17992,-0.16933 0.17992,-0.40216 v -1.95791 l -1.95791,-3.07974 q -0.35983,-0.52917 -0.97367,-0.52917 h -0.12699 v -0.10583 h 2.45532 v 0.10583 h -0.127 q -0.20108,0 -0.29633,0.127 -0.0847,0.127 -0.0847,0.22225 0,0.0847 0.0212,0.15875 l 1.54516,2.74107 1.64041,-2.73049 q 0.0318,-0.0847 0.0318,-0.16933 0,-0.0952 -0.0953,-0.22225 -0.0847,-0.127 -0.29633,-0.127 h -0.127 v -0.10583 h 2.21191 z"
         style="text-align:center;letter-spacing:2.64583px;text-anchor:middle"
         id="path80" />
    </g>
    <circle
       id="path53605"
       cx="101.85802"
       cy="138.48271"
       style="fill:none;stroke:#000000;stroke-width:1;stroke-linecap:butt;stroke-linejoin:round;stroke-miterlimit:4;stroke-dasharray:none;stroke-dashoffset:0;stroke-opacity:1;paint-order:normal"
       r="29.371738" />
  </g>
  <g
     inkscape:groupmode="layer"
     id="layer2"
     inkscape:label="Layer 2"
     transform="translate(-20.413614,-108.61097)">
    <g
       aria-label="P"
       id="text1575"
       style="font-size:50.8px;stroke-width:0.264583"
       clip-path="url(#clipPath6557)"
       inkscape:path-effect="#path-effect6561">
      <path
         d="m 90.281132,157.74535 v -36.36368 h 13.716988 q 3.62149,0 5.53145,0.34727 2.67891,0.44648 4.48965,1.71152 1.81074,1.24024 2.90215,3.49746 1.11621,2.25723 1.11621,4.96094 0,4.63848 -2.95176,7.86309 -2.95176,3.1998 -10.66602,3.1998 h -9.326558 v 14.7836 z m 4.81211,-19.07481 h 9.400978 q 4.66328,0 6.62285,-1.73633 1.95957,-1.73632 1.95957,-4.88652 0,-2.28203 -1.16582,-3.89434 -1.14102,-1.63711 -3.02617,-2.158 -1.21543,-0.32246 -4.48965,-0.32246 h -9.301758 z"
         style="-inkscape-font-specification:'Arial, Normal'"
         id="path6506"
         inkscape:original-d="m 90.281132,157.74535 v -36.36368 h 13.716988 q 3.62149,0 5.53145,0.34727 2.67891,0.44648 4.48965,1.71152 1.81074,1.24024 2.90215,3.49746 1.11621,2.25723 1.11621,4.96094 0,4.63848 -2.95176,7.86309 -2.95176,3.1998 -10.66602,3.1998 h -9.326558 v 14.7836 z m 4.81211,-19.07481 h 9.400978 q 4.66328,0 6.62285,-1.73633 1.95957,-1.73632 1.95957,-4.88652 0,-2.28203 -1.16582,-3.89434 -1.14102,-1.63711 -3.02617,-2.158 -1.21543,-0.32246 -4.48965,-0.32246 h -9.301758 z" />
    </g>
  </g>
</svg>
